# xmcd
#
# Track frame offsets: 
#        150
#        15356
#        27368
#        38924
#        54735
#        68911
#        83294
#        99369
#        114523
#        138544
#        154741
#        171477
#        191216
#        209018
#
# Disc length: 3162 seconds
#
# Revision: 0
# Processed by: cddbd v1.5.2PL0 Copyright (c) Steve Scherf et al.
# Submitted via: ExactAudioCopy v0.95a5
#
DISCID=be0c580e
DTITLE=Dr. Will and the Gangsters of Love - Good Times
DYEAR=2003
DGENRE=Blues
TTITLE0=Blue Monday
TTITLE1=Hot little mama
TTITLE2=Shirley
TTITLE3=See you later alligator
TTITLE4=Sick and tired
TTITLE5=One night
TTITLE6=Buddy shuffle
TTITLE7=Somebody changed the lock
TTITLE8=How blue can you get
TTITLE9=T-bone shuffle
TTITLE10=looking back
TTITLE11=Bo diddley blues
TTITLE12=Jump jive an´ wail
TTITLE13=Ain´t that a shame
EXTD=
EXTT0=
EXTT1=
EXTT2=
EXTT3=
EXTT4=
EXTT5=
EXTT6=
EXTT7=
EXTT8=
EXTT9=
EXTT10=
EXTT11=
EXTT12=
EXTT13=
PLAYORDER=
